<?xml version="1.0" standalone="no"?>
<!DOCTYPE svg PUBLIC "-//W3C//DTD SVG 20010904//EN"
 "http://www.w3.org/TR/2001/REC-SVG-20010904/DTD/svg10.dtd">
<svg version="1.0" xmlns="http://www.w3.org/2000/svg"
 width="200.000000pt" height="200.000000pt" viewBox="0 0 200.000000 200.000000"
 preserveAspectRatio="xMidYMid meet">
<metadata>
Created by potrace 1.14, written by Peter Selinger 2001-2017
</metadata>
<g transform="translate(0.000000,200.000000) scale(0.100000,-0.100000)"
fill="#000000" stroke="none">
<path d="M764 1740 c-17 -4 -41 -14 -53 -22 -19 -13 -107 -121 -166 -202 -11
-15 -50 -67 -87 -116 -203 -269 -203 -269 -202 -335 1 -45 9 -77 34 -130 17
-38 41 -90 52 -115 159 -353 170 -369 283 -408 64 -22 264 -80 304 -88 14 -3
28 -7 33 -10 4 -3 18 -7 29 -9 12 -2 60 -14 107 -26 97 -24 161 -22 194 7 11
11 43 46 70 79 27 33 54 66 60 74 6 8 27 37 47 65 19 28 38 55 43 61 25 29
203 285 219 315 26 48 24 81 -12 180 -17 47 -50 139 -74 205 -23 66 -56 156
-71 199 -31 85 -65 119 -129 129 -16 3 -68 15 -115 27 -47 12 -96 24 -110 26
-14 3 -54 12 -89 20 -36 9 -72 17 -80 19 -21 4 -233 55 -246 59 -5 1 -24 0
-41 -4z"/>
</g>
</svg>
