<?xml version="1.0" standalone="no"?>
<!DOCTYPE svg PUBLIC "-//W3C//DTD SVG 20010904//EN"
 "http://www.w3.org/TR/2001/REC-SVG-20010904/DTD/svg10.dtd">
<svg version="1.0" xmlns="http://www.w3.org/2000/svg" viewBox="0 0 200.000000 200.000000"
 preserveAspectRatio="xMidYMid meet">

<g transform="translate(0.000000,200.000000) scale(0.100000,-0.100000)"
fill="#000000" stroke="none">
<path d="M686 1687 c-28 -28 -110 -131 -182 -227 -261 -350 -261 -351 -250
-418 5 -33 174 -415 234 -530 28 -52 61 -73 177 -112 173 -57 496 -140 546
-140 79 0 138 69 473 548 78 112 79 125 21 287 -106 297 -144 401 -150 422
-11 40 -52 60 -182 92 -407 98 -556 131 -594 131 -39 0 -48 -5 -93 -53z m277
-7 c434 -102 486 -115 479 -121 -4 -3 -125 -52 -269 -109 -238 -95 -291 -120
-249 -120 7 0 139 50 291 111 254 100 280 109 294 94 14 -14 16 -61 19 -353 2
-198 7 -341 12 -346 7 -7 10 102 10 299 l1 310 48 -130 c35 -93 46 -134 38
-143 -8 -10 -13 -8 -24 8 -16 23 -33 26 -33 7 0 -16 71 -87 85 -84 15 3 54
-112 54 -160 1 -41 -1 -44 -78 -102 -78 -59 -99 -85 -81 -96 6 -4 10 -1 10 5
0 6 5 8 10 5 8 -5 7 -11 -1 -21 -9 -12 -15 -12 -27 -2 -29 25 -80 14 -367 -78
-159 -51 -325 -103 -367 -115 -69 -19 -78 -25 -78 -46 0 -14 -6 -23 -15 -23
-8 0 -15 -9 -15 -19 0 -11 -4 -22 -9 -25 -4 -3 -6 6 -3 19 5 26 -5 31 -56 26
-15 -1 -21 2 -17 8 4 8 -2 8 -20 1 -22 -8 -30 -6 -51 17 -24 26 -35 58 -12 35
25 -25 40 -14 36 26 -3 20 -7 44 -10 52 -2 8 -3 12 -1 7 3 -4 9 -5 14 -1 5 3
9 -3 9 -12 0 -10 7 -24 15 -33 8 -9 23 -27 33 -39 12 -16 26 -23 41 -20 22 3
22 5 -20 65 -24 34 -120 162 -212 285 l-168 222 43 22 c62 32 256 110 383 156
60 21 114 43 119 48 23 23 -9 21 -76 -5 -97 -36 -390 -135 -401 -135 -11 0 7
29 81 129 45 60 56 71 64 57 11 -20 52 -21 68 -1 17 21 6 29 -20 15 -29 -16
-36 -6 -16 24 9 15 32 29 53 35 139 36 126 28 118 69 -8 43 -13 52 -27 52 -6
0 -8 -13 -4 -35 l7 -34 -56 -17 c-31 -9 -59 -13 -62 -11 -5 6 137 206 160 225
15 13 12 20 78 -190 28 -90 47 -138 56 -138 10 0 12 7 7 23 -3 12 -29 91 -56
175 -27 84 -46 157 -43 162 9 15 22 13 208 -30z m-563 -840 c8 -5 11 -12 7
-16 -4 -4 -15 0 -24 9 -18 18 -8 23 17 7z m35 -30 c3 -5 1 -10 -4 -10 -6 0
-11 5 -11 10 0 6 2 10 4 10 3 0 8 -4 11 -10z m1038 -131 c-10 -19 -21 -36 -24
-39 -3 -3 -16 -27 -30 -55 -13 -27 -27 -52 -30 -55 -4 -3 -10 -16 -14 -30 -4
-14 -17 -38 -29 -55 -13 -16 -33 -51 -45 -76 -18 -35 -31 -49 -57 -57 -20 -6
-36 -6 -40 -1 -3 5 -14 9 -25 9 -10 0 -19 4 -19 9 0 5 -22 12 -50 16 -66 9
-63 20 6 21 46 1 60 5 82 27 21 21 24 29 14 39 -7 7 -12 23 -12 35 0 43 -33
66 -91 64 -45 -1 -56 -5 -76 -28 -28 -35 -28 -44 -3 -71 11 -12 20 -30 20 -40
0 -15 -5 -18 -27 -14 -16 2 -32 8 -38 12 -5 5 -27 11 -47 15 -21 4 -38 12 -38
17 0 6 -9 8 -20 5 -11 -3 -23 -1 -26 4 -3 5 -12 9 -20 9 -18 0 -46 25 -37 34
4 3 15 6 25 6 11 0 17 4 14 9 -3 4 6 6 19 3 14 -2 25 0 25 6 0 6 18 13 40 17
22 4 40 11 40 16 0 5 9 9 19 9 11 0 22 4 26 10 3 5 13 6 22 3 9 -4 19 0 24 10
6 9 17 13 31 9 13 -3 19 -1 15 5 -4 6 3 8 18 5 15 -2 25 0 25 7 0 6 9 11 20
11 11 0 20 4 20 9 0 4 11 6 25 3 15 -2 25 0 25 7 0 6 12 11 26 11 14 0 23 4
20 9 -3 4 6 6 19 3 14 -2 25 0 25 6 0 6 18 13 39 17 22 4 42 13 45 21 3 7 12
11 21 8 8 -3 15 -2 15 4 0 6 9 8 20 5 12 -3 20 0 20 8 0 7 2 10 5 7 3 -3 -2
-21 -12 -39z m-355 -206 c-10 -2 -18 -9 -18 -14 0 -6 -4 -7 -10 -4 -19 12 -10
25 18 24 16 -1 20 -3 10 -6z m-21 -59 c-3 -3 -12 -4 -19 -1 -8 3 -5 6 6 6 11
1 17 -2 13 -5z"/>
<path d="M952 1618 c-17 -17 -15 -43 5 -59 15 -13 16 -12 11 9 -8 29 20 46 55
33 19 -8 27 -22 37 -63 7 -29 14 -56 17 -60 6 -11 103 34 103 48 0 17 -8 17
-40 -1 -39 -22 -48 -18 -55 26 -4 23 -16 50 -26 60 -22 22 -88 26 -107 7z"/>
<path d="M641 1398 c-121 -100 -128 -107 -111 -118 23 -15 40 -12 40 8 0 11
31 43 75 78 65 52 91 84 67 84 -4 0 -36 -24 -71 -52z"/>
<path d="M1248 1369 c-31 -18 -20 -30 22 -23 35 6 41 4 49 -17 15 -39 -7 -60
-89 -83 -40 -12 -75 -26 -77 -31 -4 -14 95 -90 105 -80 4 4 -10 22 -31 40
l-39 34 71 21 c43 13 75 29 81 40 17 31 11 65 -13 88 -25 24 -52 27 -79 11z"/>
<path d="M900 1281 c0 -8 150 -135 343 -289 46 -37 116 -93 155 -124 66 -54
92 -68 92 -50 0 8 -6 12 -204 173 -396 320 -386 312 -386 290z"/>
<path d="M1399 1267 c-28 -15 -89 -119 -89 -154 0 -13 11 -35 25 -48 45 -46
83 -29 125 55 17 33 30 72 30 88 0 47 -50 79 -91 59z m65 -49 c8 -22 3 -36
-25 -85 -36 -59 -59 -74 -84 -53 -23 19 -18 58 16 117 27 46 35 54 57 51 18
-2 30 -11 36 -30z"/>
<path d="M849 1255 c-12 -17 -129 -647 -129 -690 0 -14 6 -25 13 -25 8 0 18
39 30 123 10 67 36 216 58 332 35 187 46 289 28 260z"/>
<path d="M1588 1058 c-5 -64 4 -103 23 -104 8 0 22 -4 32 -9 10 -4 20 -5 22
-3 9 9 -49 168 -61 168 -7 0 -14 -20 -16 -52z"/>
<path d="M506 1059 c-37 -54 -13 -94 80 -134 73 -31 92 -28 108 19 16 43 -3
78 -55 104 -26 13 -62 25 -81 29 -29 4 -38 1 -52 -18z m106 -24 c52 -18 75
-53 57 -86 -12 -23 -28 -22 -103 11 -42 18 -46 22 -46 55 0 30 3 35 23 35 13
0 44 -7 69 -15z"/>
<path d="M1128 1033 c7 -3 16 -2 19 1 4 3 -2 6 -13 5 -11 0 -14 -3 -6 -6z"/>
<path d="M1116 989 c-14 -17 -26 -38 -25 -47 0 -11 4 -8 10 8 6 14 20 35 31
47 12 13 19 23 16 23 -4 0 -18 -14 -32 -31z"/>
<path d="M1030 995 c-14 -8 -20 -14 -15 -14 6 0 21 6 35 14 14 8 21 14 15 14
-5 0 -21 -6 -35 -14z"/>
<path d="M944 954 c-18 -14 -18 -14 6 -3 31 14 36 19 24 19 -6 0 -19 -7 -30
-16z"/>
<path d="M912 920 c0 -14 2 -19 5 -12 2 6 2 18 0 25 -3 6 -5 1 -5 -13z"/>
<path d="M870 910 c-8 -5 -10 -10 -5 -10 6 0 17 5 25 10 8 5 11 10 5 10 -5 0
-17 -5 -25 -10z"/>
<path d="M1100 920 c-11 -28 -6 -40 15 -40 13 0 27 -5 30 -10 4 -6 11 -8 16
-5 5 4 9 2 9 -4 0 -5 -8 -15 -17 -20 -10 -6 -13 -10 -8 -11 6 0 16 4 24 9 21
14 5 41 -28 47 -17 4 -32 14 -34 23 -3 9 -6 14 -7 11z"/>
<path d="M470 895 c0 -2 8 -20 17 -40 18 -39 33 -46 33 -16 0 19 3 18 63 -6
89 -36 100 -38 95 -22 -2 7 -46 30 -98 51 -92 37 -110 43 -110 33z"/>
<path d="M858 853 c6 -2 18 -2 25 0 6 3 1 5 -13 5 -14 0 -19 -2 -12 -5z"/>
<path d="M1113 841 c-5 -20 -59 -48 -70 -37 -4 4 -1 17 6 29 13 20 13 21 -3 8
-10 -8 -15 -22 -13 -32 3 -12 -4 -21 -24 -30 -17 -6 -28 -14 -25 -16 2 -2 35
10 73 27 51 23 69 36 69 50 0 25 -6 26 -13 1z"/>
<path d="M970 789 c0 -5 5 -7 10 -4 6 3 10 8 10 11 0 2 -4 4 -10 4 -5 0 -10
-5 -10 -11z"/>
<path d="M1196 574 c-7 -18 3 -64 14 -64 4 0 11 -12 14 -26 4 -14 16 -35 26
-47 17 -18 23 -19 44 -8 13 7 29 24 36 36 11 20 10 26 -4 40 -13 14 -19 15
-31 5 -12 -10 -15 -9 -15 4 0 9 -4 16 -9 16 -8 0 -24 37 -22 53 2 14 -47 7
-53 -9z"/>
</g>
</svg>
